<svg xmlns="http://www.w3.org/2000/svg" version="1.1" xmlns:xlink="http://www.w3.org/1999/xlink" width="512" height="512" viewBox="0 0 340 340"><g><path fill="#f5cac3" d="M10 68.032h182.739v170.709H10z"/><path fill="#84a59d" d="M161.393 140.926v-31.253h-14v31.253H55.909v97.815H192.739v-97.815z"/><path fill="#f6bd60" d="M69.909 154.926h182.739V330H69.909z"/><path fill="#d99a3a" d="M147.393 265.407v14h105.255V154.926H147.393z"/><path fill="#f7ede2" d="M161.393 265.407h127.375L330 210.029V109.673H161.393z"/><g fill="#84a59d"><path d="M330 210.029a130.923 130.923 0 0 0-30.628-7.854 9.117 9.117 0 0 0-10.16 9.472c.583 13.426 1.243 37.318-.444 53.76zM291.037 158.926h-76.778a4 4 0 1 1 0-8h76.778a4 4 0 0 1 0 8zM263.444 187.371h-71.185a4 4 0 0 1 0-8h71.185a4 4 0 0 1 0 8zM263.444 215.815h-71.185a4 4 0 1 1 0-8h71.185a4 4 0 0 1 0 8z"/></g><circle cx="101.369" cy="80.337" r="7.166" fill="#84a59d"/><path fill="#2d3a38" d="m103.664 80.556 13.321-32.777-9.966-2.4-7.586 33.85a2.224 2.224 0 0 0 4.231 1.327z"/><circle cx="114.777" cy="35.302" r="15.407" fill="#f28482"/><circle cx="245.697" cy="122.34" r="7.091" fill="#84a59d"/><path fill="#2d3a38" d="m248.135 122.313 13.321-32.776-9.967-2.4-7.589 33.852a2.225 2.225 0 0 0 4.235 1.324z"/><circle cx="258.148" cy="79.074" r="15.407" fill="#f28482"/></g></svg>
